<svg id="icon-teamwork" xmlns="http://www.w3.org/2000/svg" width="112.587" height="112.587" viewBox="0 0 112.587 112.587">
  <g id="Group_19" data-name="Group 19" transform="translate(0 48.838)">
    <g id="Group_18" data-name="Group 18">
      <path id="Path_52" data-name="Path 52" d="M39.959,253.92a2.2,2.2,0,0,0-.486-.08,14.053,14.053,0,0,0,3.892-9.714V232.557a2.222,2.222,0,0,0-.024-.31c.015-.209.024-.419.024-.632V224.3a2.2,2.2,0,0,0-2.2-2.2H26.418a11.276,11.276,0,0,0-11.264,11.264v10.766a14.052,14.052,0,0,0,3.892,9.714,2.2,2.2,0,0,0-.485.08A20.444,20.444,0,0,0,0,274.252v9.395a2.2,2.2,0,0,0,2.2,2.2H56.321a2.2,2.2,0,0,0,2.2-2.2v-9.395A20.444,20.444,0,0,0,39.959,253.92Zm-20.407-17.77v-2.789a6.874,6.874,0,0,1,6.866-6.866h12.55v5.12a4.68,4.68,0,0,1-4.675,4.675H19.552Zm0,4.539H34.293a9.015,9.015,0,0,0,4.675-1.3v4.739a9.708,9.708,0,0,1-19.416,0Zm14.494,17.544-4.786,4.786-4.786-4.786Zm20.076,23.215H4.4v-4.4h9.126a2.2,2.2,0,0,0,0-4.4H4.478a16.047,16.047,0,0,1,13.909-14.286l9.318,9.318a2.2,2.2,0,0,0,3.11,0l9.318-9.318a16.04,16.04,0,0,1,13.99,15.886Z" transform="translate(0 -222.097)"/>
    </g>
  </g>
  <g id="Group_21" data-name="Group 21" transform="translate(54.066)">
    <g id="Group_20" data-name="Group 20">
      <path id="Path_53" data-name="Path 53" d="M285.832,31.823a2.2,2.2,0,0,0-.486-.08,14.052,14.052,0,0,0,3.892-9.714V10.46a2.218,2.218,0,0,0-.024-.31c.015-.209.024-.419.024-.632V2.2a2.2,2.2,0,0,0-2.2-2.2H272.29a11.276,11.276,0,0,0-11.264,11.264V22.029a14.052,14.052,0,0,0,3.892,9.714,2.2,2.2,0,0,0-.486.08,20.444,20.444,0,0,0-18.56,20.332v9.395a2.2,2.2,0,0,0,2.2,2.2h17.693a2.2,2.2,0,1,0,0-4.4H250.27v-7.2a16.04,16.04,0,0,1,13.99-15.886l9.318,9.318a2.2,2.2,0,0,0,3.11,0L286,36.268a16.04,16.04,0,0,1,13.99,15.886v7.2H283.8a2.2,2.2,0,1,0,0,4.4h18.4a2.2,2.2,0,0,0,2.2-2.2V52.155A20.445,20.445,0,0,0,285.832,31.823Zm-10.7,9.1-4.786-4.786h9.572Zm9.708-18.892a9.708,9.708,0,0,1-19.416,0V18.591h14.741a9.017,9.017,0,0,0,4.675-1.3Zm0-12.511a4.68,4.68,0,0,1-4.675,4.675H265.424v-2.93A6.874,6.874,0,0,1,272.29,4.4h12.55Z" transform="translate(-245.872 0)"/>
    </g>
  </g>
  <g id="Group_23" data-name="Group 23" transform="translate(81.128 59.35)">
    <g id="Group_22" data-name="Group 22">
      <path id="Path_54" data-name="Path 54" d="M372.694,270.544a2.2,2.2,0,1,0,.644,1.555A2.215,2.215,0,0,0,372.694,270.544Z" transform="translate(-368.94 -269.9)"/>
    </g>
  </g>
  <g id="Group_25" data-name="Group 25">
    <g id="Group_24" data-name="Group 24">
      <path id="Path_55" data-name="Path 55" d="M58.8,30.77l-9.2-9.2V10.995A11.007,11.007,0,0,0,38.61,0H10.995A11.007,11.007,0,0,0,0,10.995V30.346A11.007,11.007,0,0,0,10.995,41.34H38.61a10.933,10.933,0,0,0,10.174-6.817h8.462A2.2,2.2,0,0,0,58.8,30.77Zm-11.622-.644a2.2,2.2,0,0,0-2.143,1.706,6.561,6.561,0,0,1-6.426,5.111H10.995a6.6,6.6,0,0,1-6.6-6.6V10.995a6.6,6.6,0,0,1,6.6-6.6H38.61a6.6,6.6,0,0,1,6.6,6.6v11.49a2.2,2.2,0,0,0,.644,1.555l6.086,6.086Z"/>
    </g>
  </g>
  <g id="Group_27" data-name="Group 27" transform="translate(53.141 71.246)">
    <g id="Group_26" data-name="Group 26">
      <path id="Path_56" data-name="Path 56" d="M290.117,324H262.5a10.933,10.933,0,0,0-10.174,6.817h-8.462a2.2,2.2,0,0,0-1.555,3.754l9.2,9.2v10.579A11.007,11.007,0,0,0,262.5,365.34h27.615a11.007,11.007,0,0,0,10.995-10.995V334.995A11.007,11.007,0,0,0,290.117,324Zm6.6,30.346a6.6,6.6,0,0,1-6.6,6.6H262.5a6.6,6.6,0,0,1-6.6-6.6v-11.49a2.2,2.2,0,0,0-.644-1.555l-6.086-6.086h4.758a2.2,2.2,0,0,0,2.143-1.706A6.561,6.561,0,0,1,262.5,328.4h27.615a6.6,6.6,0,0,1,6.6,6.6Z" transform="translate(-241.666 -324)"/>
    </g>
  </g>
  <g id="Group_29" data-name="Group 29" transform="translate(79.241 86.421)">
    <g id="Group_28" data-name="Group 28">
      <path id="Path_57" data-name="Path 57" d="M389.426,389.107a2.2,2.2,0,0,0-3.11,0l-5.846,5.845-2.718-2.718a2.2,2.2,0,0,0-3.11,3.11l4.273,4.273a2.2,2.2,0,0,0,3.11,0l7.4-7.4A2.2,2.2,0,0,0,389.426,389.107Z" transform="translate(-373.999 -388.463)" fill="#2a6d98"/>
    </g>
  </g>
  <g id="Group_33" data-name="Group 33" transform="translate(11.996 18.266)">
    <g id="Group_32" data-name="Group 32">
      <path id="Path_59" data-name="Path 59" d="M117.424,133.734a2.2,2.2,0,1,0,.644,1.555A2.216,2.216,0,0,0,117.424,133.734Z" transform="translate(-113.67 -133.09)" fill="#2a6d98"/>
    </g>
  </g>
  <g id="Group_36" data-name="Group 36" transform="translate(21.996 18.266)">
    <g id="Group_32-2" data-name="Group 32">
      <path id="Path_59-2" data-name="Path 59" d="M117.424,133.734a2.2,2.2,0,1,0,.644,1.555A2.216,2.216,0,0,0,117.424,133.734Z" transform="translate(-113.67 -133.09)" fill="#2a6d98"/>
    </g>
  </g>
  <g id="Group_37" data-name="Group 37" transform="translate(31.996 18.266)">
    <g id="Group_32-3" data-name="Group 32">
      <path id="Path_59-3" data-name="Path 59" d="M117.424,133.734a2.2,2.2,0,1,0,.644,1.555A2.216,2.216,0,0,0,117.424,133.734Z" transform="translate(-113.67 -133.09)" fill="#2a6d98"/>
    </g>
  </g>
  <g id="Group_35" data-name="Group 35" transform="translate(20.12 99.393)">
    <g id="Group_34" data-name="Group 34">
      <path id="Path_60" data-name="Path 60" d="M95.254,452.644A2.2,2.2,0,1,0,95.9,454.2,2.216,2.216,0,0,0,95.254,452.644Z" transform="translate(-91.5 -452)"/>
    </g>
  </g>
</svg>
