<svg xmlns="http://www.w3.org/2000/svg" width="118.935" height="112.461" viewBox="0 0 118.935 112.461">
  <g id="icon-media-content" transform="translate(0 -13.934)">
    <circle id="Ellipse_1" data-name="Ellipse 1" cx="1.742" cy="1.742" r="1.742" transform="translate(86.205 24.085)"/>
    <circle id="Ellipse_2" data-name="Ellipse 2" cx="1.742" cy="1.742" r="1.742" transform="translate(95.477 24.085)"/>
    <circle id="Ellipse_3" data-name="Ellipse 3" cx="1.742" cy="1.742" r="1.742" transform="translate(104.749 24.085)"/>
    <path id="Path_61" data-name="Path 61" d="M212.888,239.1a4.14,4.14,0,0,0,2.074-.562l13.891-8.02a4.107,4.107,0,0,0,2.075-3.593,4.243,4.243,0,0,0-.034-.538,4.092,4.092,0,0,0-1.793-2.9l0,0-.007,0h0c-.076-.05-.154-.1-.234-.145l-13.891-8.02a4.149,4.149,0,0,0-6.223,3.593v16.04a4.164,4.164,0,0,0,4.149,4.155Zm-.665-20.2a.664.664,0,0,1,1-.576l13.891,8.02a.664.664,0,0,1,0,1.151l-13.891,8.02a.664.664,0,0,1-1-.576Z" transform="translate(-160.25 -154.17)" fill="#2a6d98"/>
    <path id="Path_62" data-name="Path 62" d="M150.192,150.167H68.009a3.513,3.513,0,0,0-3.509,3.509v47.338a3.513,3.513,0,0,0,3.509,3.509H84.826a1.742,1.742,0,1,0,0-3.484H68.009a.025.025,0,0,1-.025-.025V153.676a.025.025,0,0,1,.025-.025h82.182a.025.025,0,0,1,.025.025v47.338a.025.025,0,0,1-.025.025h-58.4a1.742,1.742,0,1,0,0,3.484h58.4a3.513,3.513,0,0,0,3.509-3.509V153.676A3.513,3.513,0,0,0,150.192,150.167Z" transform="translate(-49.517 -104.587)"/>
    <path id="Path_63" data-name="Path 63" d="M151.959,408.012H80.327a5.436,5.436,0,0,0-5.222-3.953h-.537a5.436,5.436,0,0,0-5.222,3.953h-3.1a1.742,1.742,0,1,0,0,3.484h3.1a5.436,5.436,0,0,0,5.222,3.953h.537a5.436,5.436,0,0,0,5.222-3.953h71.631a1.742,1.742,0,1,0,0-3.484Zm-74.911,2.01a1.945,1.945,0,0,1-1.943,1.943h-.537a1.945,1.945,0,0,1-1.943-1.943v-.537a1.945,1.945,0,0,1,1.943-1.943h.537a1.945,1.945,0,0,1,1.943,1.943Z" transform="translate(-49.517 -299.501)"/>
    <path id="Path_64" data-name="Path 64" d="M110.624,13.934H43.354a1.742,1.742,0,1,0,0,3.484h67.27a4.832,4.832,0,0,1,4.826,4.826V34.236H3.484V22.245a4.832,4.832,0,0,1,4.826-4.826H36.385a1.742,1.742,0,1,0,0-3.484H8.311A8.32,8.32,0,0,0,0,22.245v95.84A8.32,8.32,0,0,0,8.311,126.4H110.624a8.32,8.32,0,0,0,8.311-8.311V22.245a8.32,8.32,0,0,0-8.311-8.311Zm0,108.977H8.311a4.832,4.832,0,0,1-4.826-4.826V37.72H115.45v80.364A4.832,4.832,0,0,1,110.624,122.911Z"/>
  </g>
</svg>
